<svg xmlns="http://www.w3.org/2000/svg" viewBox="0 0 1200 630" width="1200" height="630">
  <defs>
    <linearGradient id="g2" x1="0" y1="0" x2="1" y2="1">
      <stop offset="0%" stop-color="#ffffff"/>
      <stop offset="100%" stop-color="#5a6070"/>
    </linearGradient>
    <radialGradient id="v2" cx="50%" cy="35%" r="75%">
      <stop offset="0%" stop-color="#ffffff" stop-opacity="0.10"/>
      <stop offset="100%" stop-color="#000000" stop-opacity="0.55"/>
    </radialGradient>
    <filter id="blur2" x="-30%" y="-30%" width="160%" height="160%">
      <feGaussianBlur stdDeviation="70"/>
    </filter>
    <filter id="grain2">
      <feTurbulence type="fractalNoise" baseFrequency="0.9" numOctaves="3" stitchTiles="stitch"/>
      <feColorMatrix type="saturate" values="0"/>
    </filter>
  </defs>

  <rect width="1200" height="630" fill="#0a0a0f"/>
  <g filter="url(#blur2)">
    <circle cx="630" cy="359" r="309" fill="url(#g2)" opacity="0.59"/><circle cx="997" cy="246" r="330" fill="url(#g2)" opacity="0.44"/><circle cx="398" cy="108" r="242" fill="url(#g2)" opacity="0.35"/><circle cx="365" cy="371" r="295" fill="url(#g2)" opacity="0.54"/><circle cx="170" cy="91" r="191" fill="url(#g2)" opacity="0.48"/>
  </g>
  <g stroke="#ffffff" stroke-opacity="0.055" stroke-width="1">
    <line x1="0" y1="0" x2="0" y2="630" /><line x1="60" y1="0" x2="60" y2="630" /><line x1="120" y1="0" x2="120" y2="630" /><line x1="180" y1="0" x2="180" y2="630" /><line x1="240" y1="0" x2="240" y2="630" /><line x1="300" y1="0" x2="300" y2="630" /><line x1="360" y1="0" x2="360" y2="630" /><line x1="420" y1="0" x2="420" y2="630" /><line x1="480" y1="0" x2="480" y2="630" /><line x1="540" y1="0" x2="540" y2="630" /><line x1="600" y1="0" x2="600" y2="630" /><line x1="660" y1="0" x2="660" y2="630" /><line x1="720" y1="0" x2="720" y2="630" /><line x1="780" y1="0" x2="780" y2="630" /><line x1="840" y1="0" x2="840" y2="630" /><line x1="900" y1="0" x2="900" y2="630" /><line x1="960" y1="0" x2="960" y2="630" /><line x1="1020" y1="0" x2="1020" y2="630" /><line x1="1080" y1="0" x2="1080" y2="630" /><line x1="1140" y1="0" x2="1140" y2="630" /><line x1="1200" y1="0" x2="1200" y2="630" /><line x1="0" y1="0" x2="1200" y2="0" /><line x1="0" y1="60" x2="1200" y2="60" /><line x1="0" y1="120" x2="1200" y2="120" /><line x1="0" y1="180" x2="1200" y2="180" /><line x1="0" y1="240" x2="1200" y2="240" /><line x1="0" y1="300" x2="1200" y2="300" /><line x1="0" y1="360" x2="1200" y2="360" /><line x1="0" y1="420" x2="1200" y2="420" /><line x1="0" y1="480" x2="1200" y2="480" /><line x1="0" y1="540" x2="1200" y2="540" /><line x1="0" y1="600" x2="1200" y2="600" />
  </g>
  <rect width="1200" height="630" fill="url(#v2)"/>
  <rect width="1200" height="630" filter="url(#grain2)" opacity="0.05"/>
</svg>